<?xml version="1.0" encoding="UTF-8" standalone="no"?>
<svg xmlns="http://www.w3.org/2000/svg" xmlns:xlink="http://www.w3.org/1999/xlink" contentScriptType="application/ecmascript" contentStyleType="text/css" height="339px" preserveAspectRatio="none" style="width:363px;height:339px;" version="1.1" viewBox="0 0 363 339" width="363px" zoomAndPan="magnify"><defs><filter height="300%" id="f5ismklrj2yom" width="300%" x="-1" y="-1"><feGaussianBlur result="blurOut" stdDeviation="2.0"/><feColorMatrix in="blurOut" result="blurOut2" type="matrix" values="0 0 0 0 0 0 0 0 0 0 0 0 0 0 0 0 0 0 .4 0"/><feOffset dx="4.0" dy="4.0" in="blurOut2" result="blurOut3"/><feBlend in="SourceGraphic" in2="blurOut3" mode="normal"/></filter></defs><g><!--MD5=[63dd87716ef75a5caca5dce59428e94a]
class File--><rect fill="#FEFECE" filter="url(#f5ismklrj2yom)" height="150.4375" id="File" style="stroke: #A80036; stroke-width: 1.5;" width="149" x="6" y="178"/><ellipse cx="65.75" cy="194" fill="#ADD1B2" rx="11" ry="11" style="stroke: #A80036; stroke-width: 1.0;"/><path d="M64.5469,194.875 L66,194.875 L66,194.9844 C66,195.3906 66.0313,195.5469 66.1094,195.7031 C66.2656,195.9531 66.5469,196.1094 66.8438,196.1094 C67.0938,196.1094 67.3594,195.9688 67.5156,195.75 C67.6406,195.5938 67.6719,195.4375 67.6719,194.9844 L67.6719,193.0625 C67.6719,192.9063 67.6719,192.8594 67.6563,192.7031 C67.5938,192.2344 67.2813,191.9219 66.8281,191.9219 C66.5781,191.9219 66.3125,192.0625 66.1406,192.2813 C66.0313,192.4531 66,192.6094 66,193.0625 L66,193.1875 L64.5469,193.1875 L64.5469,190.7813 L68.5313,190.7813 L68.5313,191.6406 C68.5313,192.0469 68.5625,192.2188 68.6406,192.375 C68.8125,192.625 69.0938,192.7813 69.375,192.7813 C69.6406,192.7813 69.9063,192.6406 70.0781,192.4219 C70.1875,192.25 70.2188,192.1094 70.2188,191.6406 L70.2188,189.0938 L62.5938,189.0938 C62.1563,189.0938 62.0313,189.1094 61.875,189.2031 C61.625,189.3594 61.4688,189.6563 61.4688,189.9375 C61.4688,190.2188 61.6094,190.4688 61.8281,190.6406 C61.9844,190.75 62.1719,190.7813 62.5938,190.7813 L62.8438,190.7813 L62.8438,197.2969 L62.5938,197.2969 C62.1875,197.2969 62.0313,197.3125 61.875,197.4219 C61.625,197.5938 61.4688,197.8594 61.4688,198.1563 C61.4688,198.4219 61.6094,198.6719 61.8281,198.8281 C61.9688,198.9531 62.2031,199 62.5938,199 L70.5938,199 L70.5938,196.4219 C70.5938,195.9844 70.5625,195.8438 70.4844,195.6875 C70.3125,195.4375 70.0313,195.2813 69.75,195.2813 C69.4844,195.2813 69.2188,195.3906 69.0469,195.6406 C68.9375,195.7969 68.9063,195.9375 68.9063,196.4219 L68.9063,197.2969 L64.5469,197.2969 L64.5469,194.875 Z "/><text fill="#000000" font-family="sans-serif" font-size="12" lengthAdjust="spacingAndGlyphs" textLength="21" x="86.25" y="198.1543">File</text><line style="stroke: #A80036; stroke-width: 1.5;" x1="7" x2="154" y1="210" y2="210"/><ellipse cx="17" cy="221" fill="#000000" rx="3" ry="3" style="stroke: #000000; stroke-width: 1.0;"/><text fill="#000000" font-family="sans-serif" font-size="11" lengthAdjust="spacingAndGlyphs" textLength="31" x="26" y="224.2104">id: int</text><line style="stroke: #A80036; stroke-width: 1.0;" x1="7" x2="154" y1="230.8047" y2="230.8047"/><text fill="#000000" font-family="sans-serif" font-size="11" lengthAdjust="spacingAndGlyphs" textLength="54" x="26" y="245.0151">name: str</text><text fill="#000000" font-family="sans-serif" font-size="11" lengthAdjust="spacingAndGlyphs" textLength="83" x="26" y="257.8198">description: str</text><ellipse cx="17" cy="267.4141" fill="#000000" rx="3" ry="3" style="stroke: #000000; stroke-width: 1.0;"/><text fill="#000000" font-family="sans-serif" font-size="11" lengthAdjust="spacingAndGlyphs" textLength="35" x="26" y="270.6245">uri: str</text><text fill="#000000" font-family="sans-serif" font-size="11" lengthAdjust="spacingAndGlyphs" textLength="86" x="26" y="283.4292">mime_type: str</text><text fill="#000000" font-family="sans-serif" font-size="11" lengthAdjust="spacingAndGlyphs" textLength="66" x="26" y="296.2339">data: buffer</text><ellipse cx="17" cy="305.8281" fill="#000000" rx="3" ry="3" style="stroke: #000000; stroke-width: 1.0;"/><text fill="#000000" font-family="sans-serif" font-size="11" lengthAdjust="spacingAndGlyphs" textLength="120" x="26" y="309.0386">created_at: datetime</text><ellipse cx="17" cy="318.6328" fill="#000000" rx="3" ry="3" style="stroke: #000000; stroke-width: 1.0;"/><text fill="#000000" font-family="sans-serif" font-size="11" lengthAdjust="spacingAndGlyphs" textLength="123" x="26" y="321.8433">updated_at: datetime</text><!--MD5=[aa92bde69953255cbdd0c6d8ca3e12e8]
class FileTag--><rect fill="#FEFECE" filter="url(#f5ismklrj2yom)" height="112.0234" id="FileTag" style="stroke: #A80036; stroke-width: 1.5;" width="149" x="98" y="6"/><ellipse cx="146.75" cy="22" fill="#ADD1B2" rx="11" ry="11" style="stroke: #A80036; stroke-width: 1.0;"/><path d="M145.5469,22.875 L147,22.875 L147,22.9844 C147,23.3906 147.0313,23.5469 147.1094,23.7031 C147.2656,23.9531 147.5469,24.1094 147.8438,24.1094 C148.0938,24.1094 148.3594,23.9688 148.5156,23.75 C148.6406,23.5938 148.6719,23.4375 148.6719,22.9844 L148.6719,21.0625 C148.6719,20.9063 148.6719,20.8594 148.6563,20.7031 C148.5938,20.2344 148.2813,19.9219 147.8281,19.9219 C147.5781,19.9219 147.3125,20.0625 147.1406,20.2813 C147.0313,20.4531 147,20.6094 147,21.0625 L147,21.1875 L145.5469,21.1875 L145.5469,18.7813 L149.5313,18.7813 L149.5313,19.6406 C149.5313,20.0469 149.5625,20.2188 149.6406,20.375 C149.8125,20.625 150.0938,20.7813 150.375,20.7813 C150.6406,20.7813 150.9063,20.6406 151.0781,20.4219 C151.1875,20.25 151.2188,20.1094 151.2188,19.6406 L151.2188,17.0938 L143.5938,17.0938 C143.1563,17.0938 143.0313,17.1094 142.875,17.2031 C142.625,17.3594 142.4688,17.6563 142.4688,17.9375 C142.4688,18.2188 142.6094,18.4688 142.8281,18.6406 C142.9844,18.75 143.1719,18.7813 143.5938,18.7813 L143.8438,18.7813 L143.8438,25.2969 L143.5938,25.2969 C143.1875,25.2969 143.0313,25.3125 142.875,25.4219 C142.625,25.5938 142.4688,25.8594 142.4688,26.1563 C142.4688,26.4219 142.6094,26.6719 142.8281,26.8281 C142.9688,26.9531 143.2031,27 143.5938,27 L151.5938,27 L151.5938,24.4219 C151.5938,23.9844 151.5625,23.8438 151.4844,23.6875 C151.3125,23.4375 151.0313,23.2813 150.75,23.2813 C150.4844,23.2813 150.2188,23.3906 150.0469,23.6406 C149.9375,23.7969 149.9063,23.9375 149.9063,24.4219 L149.9063,25.2969 L145.5469,25.2969 L145.5469,22.875 Z "/><text fill="#000000" font-family="sans-serif" font-size="12" lengthAdjust="spacingAndGlyphs" textLength="43" x="167.25" y="26.1543">FileTag</text><line style="stroke: #A80036; stroke-width: 1.5;" x1="99" x2="246" y1="38" y2="38"/><ellipse cx="109" cy="49" fill="#000000" rx="3" ry="3" style="stroke: #000000; stroke-width: 1.0;"/><text fill="#000000" font-family="sans-serif" font-size="11" lengthAdjust="spacingAndGlyphs" textLength="58" x="118" y="52.2104">file: File.id</text><ellipse cx="109" cy="61.8047" fill="#000000" rx="3" ry="3" style="stroke: #000000; stroke-width: 1.0;"/><text fill="#000000" font-family="sans-serif" font-size="11" lengthAdjust="spacingAndGlyphs" textLength="59" x="118" y="65.0151">tag: Tag.id</text><line style="stroke: #A80036; stroke-width: 1.0;" x1="99" x2="246" y1="71.6094" y2="71.6094"/><text fill="#000000" font-family="sans-serif" font-size="11" lengthAdjust="spacingAndGlyphs" textLength="53" x="118" y="85.8198">value: str</text><ellipse cx="109" cy="95.4141" fill="#000000" rx="3" ry="3" style="stroke: #000000; stroke-width: 1.0;"/><text fill="#000000" font-family="sans-serif" font-size="11" lengthAdjust="spacingAndGlyphs" textLength="120" x="118" y="98.6245">created_at: datetime</text><ellipse cx="109" cy="108.2188" fill="#000000" rx="3" ry="3" style="stroke: #000000; stroke-width: 1.0;"/><text fill="#000000" font-family="sans-serif" font-size="11" lengthAdjust="spacingAndGlyphs" textLength="123" x="118" y="111.4292">updated_at: datetime</text><!--MD5=[39d6d2ea03de602dbf4d534e70c872a9]
class Tag--><rect fill="#FEFECE" filter="url(#f5ismklrj2yom)" height="112.0234" id="Tag" style="stroke: #A80036; stroke-width: 1.5;" width="149" x="190" y="197"/><ellipse cx="249.25" cy="213" fill="#ADD1B2" rx="11" ry="11" style="stroke: #A80036; stroke-width: 1.0;"/><path d="M248.0469,213.875 L249.5,213.875 L249.5,213.9844 C249.5,214.3906 249.5313,214.5469 249.6094,214.7031 C249.7656,214.9531 250.0469,215.1094 250.3438,215.1094 C250.5938,215.1094 250.8594,214.9688 251.0156,214.75 C251.1406,214.5938 251.1719,214.4375 251.1719,213.9844 L251.1719,212.0625 C251.1719,211.9063 251.1719,211.8594 251.1563,211.7031 C251.0938,211.2344 250.7813,210.9219 250.3281,210.9219 C250.0781,210.9219 249.8125,211.0625 249.6406,211.2813 C249.5313,211.4531 249.5,211.6094 249.5,212.0625 L249.5,212.1875 L248.0469,212.1875 L248.0469,209.7813 L252.0313,209.7813 L252.0313,210.6406 C252.0313,211.0469 252.0625,211.2188 252.1406,211.375 C252.3125,211.625 252.5938,211.7813 252.875,211.7813 C253.1406,211.7813 253.4063,211.6406 253.5781,211.4219 C253.6875,211.25 253.7188,211.1094 253.7188,210.6406 L253.7188,208.0938 L246.0938,208.0938 C245.6563,208.0938 245.5313,208.1094 245.375,208.2031 C245.125,208.3594 244.9688,208.6563 244.9688,208.9375 C244.9688,209.2188 245.1094,209.4688 245.3281,209.6406 C245.4844,209.75 245.6719,209.7813 246.0938,209.7813 L246.3438,209.7813 L246.3438,216.2969 L246.0938,216.2969 C245.6875,216.2969 245.5313,216.3125 245.375,216.4219 C245.125,216.5938 244.9688,216.8594 244.9688,217.1563 C244.9688,217.4219 245.1094,217.6719 245.3281,217.8281 C245.4688,217.9531 245.7031,218 246.0938,218 L254.0938,218 L254.0938,215.4219 C254.0938,214.9844 254.0625,214.8438 253.9844,214.6875 C253.8125,214.4375 253.5313,214.2813 253.25,214.2813 C252.9844,214.2813 252.7188,214.3906 252.5469,214.6406 C252.4375,214.7969 252.4063,214.9375 252.4063,215.4219 L252.4063,216.2969 L248.0469,216.2969 L248.0469,213.875 Z "/><text fill="#000000" font-family="sans-serif" font-size="12" lengthAdjust="spacingAndGlyphs" textLength="22" x="269.75" y="217.1543">Tag</text><line style="stroke: #A80036; stroke-width: 1.5;" x1="191" x2="338" y1="229" y2="229"/><ellipse cx="201" cy="240" fill="#000000" rx="3" ry="3" style="stroke: #000000; stroke-width: 1.0;"/><text fill="#000000" font-family="sans-serif" font-size="11" lengthAdjust="spacingAndGlyphs" textLength="31" x="210" y="243.2104">id: int</text><line style="stroke: #A80036; stroke-width: 1.0;" x1="191" x2="338" y1="249.8047" y2="249.8047"/><ellipse cx="201" cy="260.8047" fill="#000000" rx="3" ry="3" style="stroke: #000000; stroke-width: 1.0;"/><text fill="#000000" font-family="sans-serif" font-size="11" lengthAdjust="spacingAndGlyphs" textLength="105" x="210" y="264.0151">name: str (unique)</text><text fill="#000000" font-family="sans-serif" font-size="11" lengthAdjust="spacingAndGlyphs" textLength="83" x="210" y="276.8198">description: str</text><ellipse cx="201" cy="286.4141" fill="#000000" rx="3" ry="3" style="stroke: #000000; stroke-width: 1.0;"/><text fill="#000000" font-family="sans-serif" font-size="11" lengthAdjust="spacingAndGlyphs" textLength="120" x="210" y="289.6245">created_at: datetime</text><ellipse cx="201" cy="299.2188" fill="#000000" rx="3" ry="3" style="stroke: #000000; stroke-width: 1.0;"/><text fill="#000000" font-family="sans-serif" font-size="11" lengthAdjust="spacingAndGlyphs" textLength="123" x="210" y="302.4292">updated_at: datetime</text><!--MD5=[4bf8aff396996fef456cd268939daa24]
class Config--><rect fill="#FEFECE" filter="url(#f5ismklrj2yom)" height="73.6094" id="Config" style="stroke: #A80036; stroke-width: 1.5;" width="70" x="282.5" y="25"/><ellipse cx="297.5" cy="41" fill="#ADD1B2" rx="11" ry="11" style="stroke: #A80036; stroke-width: 1.0;"/><path d="M296.2969,41.875 L297.75,41.875 L297.75,41.9844 C297.75,42.3906 297.7813,42.5469 297.8594,42.7031 C298.0156,42.9531 298.2969,43.1094 298.5938,43.1094 C298.8438,43.1094 299.1094,42.9688 299.2656,42.75 C299.3906,42.5938 299.4219,42.4375 299.4219,41.9844 L299.4219,40.0625 C299.4219,39.9063 299.4219,39.8594 299.4063,39.7031 C299.3438,39.2344 299.0313,38.9219 298.5781,38.9219 C298.3281,38.9219 298.0625,39.0625 297.8906,39.2813 C297.7813,39.4531 297.75,39.6094 297.75,40.0625 L297.75,40.1875 L296.2969,40.1875 L296.2969,37.7813 L300.2813,37.7813 L300.2813,38.6406 C300.2813,39.0469 300.3125,39.2188 300.3906,39.375 C300.5625,39.625 300.8438,39.7813 301.125,39.7813 C301.3906,39.7813 301.6563,39.6406 301.8281,39.4219 C301.9375,39.25 301.9688,39.1094 301.9688,38.6406 L301.9688,36.0938 L294.3438,36.0938 C293.9063,36.0938 293.7813,36.1094 293.625,36.2031 C293.375,36.3594 293.2188,36.6563 293.2188,36.9375 C293.2188,37.2188 293.3594,37.4688 293.5781,37.6406 C293.7344,37.75 293.9219,37.7813 294.3438,37.7813 L294.5938,37.7813 L294.5938,44.2969 L294.3438,44.2969 C293.9375,44.2969 293.7813,44.3125 293.625,44.4219 C293.375,44.5938 293.2188,44.8594 293.2188,45.1563 C293.2188,45.4219 293.3594,45.6719 293.5781,45.8281 C293.7188,45.9531 293.9531,46 294.3438,46 L302.3438,46 L302.3438,43.4219 C302.3438,42.9844 302.3125,42.8438 302.2344,42.6875 C302.0625,42.4375 301.7813,42.2813 301.5,42.2813 C301.2344,42.2813 300.9688,42.3906 300.7969,42.6406 C300.6875,42.7969 300.6563,42.9375 300.6563,43.4219 L300.6563,44.2969 L296.2969,44.2969 L296.2969,41.875 Z "/><text fill="#000000" font-family="sans-serif" font-size="12" lengthAdjust="spacingAndGlyphs" textLength="38" x="311.5" y="45.1543">Config</text><line style="stroke: #A80036; stroke-width: 1.5;" x1="283.5" x2="351.5" y1="57" y2="57"/><ellipse cx="293.5" cy="68" fill="#000000" rx="3" ry="3" style="stroke: #000000; stroke-width: 1.0;"/><text fill="#000000" font-family="sans-serif" font-size="11" lengthAdjust="spacingAndGlyphs" textLength="42" x="302.5" y="71.2104">key: str</text><line style="stroke: #A80036; stroke-width: 1.0;" x1="283.5" x2="351.5" y1="77.8047" y2="77.8047"/><text fill="#000000" font-family="sans-serif" font-size="11" lengthAdjust="spacingAndGlyphs" textLength="53" x="288.5" y="92.0151">value: str</text><!--MD5=[95cbd3894760bb9105c43435c165783a]
link FileTag to File--><path d="M141.969,125.721 C134.995,140.048 127.484,155.478 120.189,170.465 " fill="none" id="FileTag-File" style="stroke: #A80036; stroke-width: 1.0;"/><line style="stroke: #A80036; stroke-width: 1.0;" x1="121.9753" x2="114.7822" y1="175.9342" y2="172.4327"/><line style="stroke: #A80036; stroke-width: 1.0;" x1="123.2883" x2="116.0953" y1="173.2369" y2="169.7354"/><line style="stroke: #A80036; stroke-width: 1.0;" x1="120.1295" x2="116.628" y1="170.587" y2="177.78"/><line style="stroke: #A80036; stroke-width: 1.0;" x1="142.1411" x2="140.247" y1="125.3683" y2="115.5493"/><line style="stroke: #A80036; stroke-width: 1.0;" x1="142.1411" x2="151.037" y1="125.3683" y2="120.8007"/><line style="stroke: #A80036; stroke-width: 1.0;" x1="142.1411" x2="145.642" y1="125.3683" y2="118.175"/><ellipse cx="139.5153" cy="130.7633" fill="none" rx="4" ry="4" style="stroke: #A80036; stroke-width: 1.0;"/><!--MD5=[80c078c21c5c104e6ecd49836c491a0c]
link FileTag to Tag--><path d="M202.942,125.538 C212.919,146.034 224.003,168.805 233.985,189.312 " fill="none" id="FileTag-Tag" style="stroke: #A80036; stroke-width: 1.0;"/><line style="stroke: #A80036; stroke-width: 1.0;" x1="239.4548" x2="232.2617" y1="191.4097" y2="194.9112"/><line style="stroke: #A80036; stroke-width: 1.0;" x1="238.1417" x2="230.9487" y1="188.7124" y2="192.2139"/><line style="stroke: #A80036; stroke-width: 1.0;" x1="234.1075" x2="237.609" y1="189.564" y2="196.757"/><line style="stroke: #A80036; stroke-width: 1.0;" x1="202.8589" x2="193.963" y1="125.3683" y2="120.8007"/><line style="stroke: #A80036; stroke-width: 1.0;" x1="202.8589" x2="204.753" y1="125.3683" y2="115.5493"/><line style="stroke: #A80036; stroke-width: 1.0;" x1="202.8589" x2="199.358" y1="125.3683" y2="118.175"/><ellipse cx="205.4847" cy="130.7633" fill="none" rx="4" ry="4" style="stroke: #A80036; stroke-width: 1.0;"/><!--MD5=[c68496af409c7aa21019f43b4225d47a]
@startuml
entity File {
  * id: int
  - -
  name: str
  description: str
  * uri: str
  mime_type: str
  data: buffer
  * created_at: datetime
  * updated_at: datetime
}

entity FileTag {
  * file: File.id
  * tag: Tag.id
  - -
  value: str
  * created_at: datetime
  * updated_at: datetime
}
entity Tag {
  * id: int
  - -
  * name: str (unique)
  description: str
  * created_at: datetime
  * updated_at: datetime
}
entity Config {
  * key: str
  - -
  value: str
}

FileTag }o- -|| File
FileTag }o- -|| Tag
@enduml

PlantUML version 1.2020.12(Sat Jun 06 10:54:15 UTC 2020)
(GPL source distribution)
Java Runtime: Java(TM) SE Runtime Environment
JVM: Java HotSpot(TM) 64-Bit Server VM
Default Encoding: UTF-8
Language: en
Country: US
--></g></svg>